<?xml version='1.0' encoding='iso-8859-1'?>
<svg version="1.1" xmlns="http://www.w3.org/2000/svg" viewBox="0 0 8.64 8.64" xmlns:xlink="http://www.w3.org/1999/xlink" enable-background="new 0 0 8.64 8.64">
  <g>
    <g>
      <path d="m8.01,2.143c-0.32-0.567-1.098-0.784-2.069-0.672-0.396-0.9-0.975-1.471-1.621-1.471s-1.225,0.571-1.619,1.471c-0.972-0.112-1.751,0.105-2.071,0.672-0.323,0.569-0.114,1.371 0.472,2.178-0.586,0.805-0.795,1.607-0.472,2.176 0.32,0.567 1.1,0.784 2.07,0.672 0.396,0.9 0.974,1.471 1.62,1.471s1.225-0.571 1.62-1.471c0.971,0.112 1.75-0.105 2.07-0.672 0.323-0.569 0.115-1.371-0.471-2.177 0.586-0.806 0.794-1.608 0.471-2.177zm-.409,.242c0.224,0.397 0.072,0.966-0.353,1.568-0.243-0.28-0.53-0.555-0.854-0.818-0.062-0.44-0.156-0.854-0.281-1.225 0.714-0.07 1.266,0.081 1.488,0.475zm-1.14,1.429c0.184,0.167 0.351,0.337 0.499,0.506-0.147,0.168-0.313,0.337-0.496,0.503 0.01-0.165 0.016-0.332 0.016-0.503 0-0.172-0.01-0.339-0.019-0.506zm-.62-1.088c-0.146-0.1-0.298-0.198-0.456-0.291-0.15-0.089-0.301-0.17-0.452-0.247 0.247-0.085 0.489-0.158 0.718-0.205 0.076,0.227 0.138,0.48 0.19,0.743zm-1.521-2.246c0.45,0 0.857,0.407 1.159,1.065-0.37,0.077-0.761,0.2-1.158,0.362-0.398-0.163-0.788-0.285-1.159-0.362 0.302-0.658 0.709-1.065 1.158-1.065zm-1.33,1.503c0.232,0.048 0.476,0.116 0.727,0.203-0.155,0.078-0.308,0.158-0.462,0.249-0.16,0.094-0.313,0.194-0.462,0.296 0.052-0.268 0.12-0.518 0.197-0.748zm-1.95,4.272c-0.225-0.397-0.073-0.965 0.352-1.568 0.243,0.28 0.53,0.556 0.854,0.818 0.062,0.44 0.157,0.854 0.281,1.225-0.714,0.07-1.265-0.081-1.487-0.475zm1.139-1.429c-0.184-0.167-0.35-0.337-0.498-0.506 0.147-0.169 0.312-0.337 0.494-0.503-0.008,0.165-0.015,0.333-0.015,0.503 0,0.172 0.01,0.339 0.019,0.506zm.066-1.69c-0.324,0.263-0.609,0.54-0.853,0.819-0.426-0.602-0.577-1.172-0.352-1.57 0.222-0.394 0.774-0.545 1.49-0.474-0.125,0.372-0.223,0.784-0.285,1.225zm.553,2.778c0.147,0.1 0.298,0.198 0.456,0.292 0.15,0.089 0.302,0.17 0.452,0.247-0.246,0.084-0.489,0.157-0.717,0.205-0.076-0.228-0.138-0.481-0.191-0.744zm1.522,2.246c-0.449,0-0.857-0.406-1.159-1.064 0.37-0.077 0.761-0.2 1.158-0.362 0.398,0.163 0.789,0.285 1.159,0.362-0.301,0.658-0.708,1.064-1.158,1.064zm1.33-1.503c-0.231-0.048-0.475-0.115-0.727-0.202 0.154-0.078 0.309-0.158 0.462-0.249 0.16-0.095 0.314-0.194 0.463-0.296-0.053,0.267-0.12,0.517-0.198,0.747zm.299-1.407c-0.248,0.188-0.514,0.368-0.8,0.537-0.28,0.165-0.559,0.301-0.834,0.424-0.272-0.122-0.548-0.262-0.823-0.424-0.285-0.168-0.55-0.348-0.796-0.533-0.033-0.301-0.056-0.61-0.056-0.934 0-0.321 0.019-0.631 0.052-0.93 0.247-0.187 0.514-0.368 0.8-0.537 0.279-0.165 0.558-0.302 0.833-0.425 0.272,0.123 0.548,0.263 0.824,0.425 0.284,0.168 0.549,0.348 0.795,0.534 0.033,0.3 0.057,0.609 0.057,0.933 0,0.321-0.02,0.632-0.052,0.93zm1.652,1.005c-0.223,0.395-0.775,0.545-1.49,0.475 0.125-0.372 0.223-0.784 0.285-1.226 0.324-0.263 0.608-0.54 0.852-0.819 0.425,0.603 0.578,1.173 0.353,1.57zm-3.281-2.655c-0.398,0-0.72,0.322-0.72,0.72 0,0.398 0.322,0.72 0.72,0.72 0.397,0 0.72-0.322 0.72-0.72 0-0.398-0.323-0.72-0.72-0.72zm0,.96c-0.133,0-0.24-0.107-0.24-0.24 0-0.133 0.107-0.24 0.24-0.24s0.24,0.107 0.24,0.24c-8.88178e-16,0.133-0.107,0.24-0.24,0.24z"/>
    </g>
  </g>
</svg>
